HIERARCHY
ROOT Hips
{
	OFFSET 0.000000 0.000000 0.000000 
	CHANNELS 6 Xposition Yposition Zposition Yrotation Zrotation Xrotation 
	JOINT Lumbar
	{
		OFFSET 0.000000 0.000000 0.000000 
		CHANNELS 3 Zrotation Xrotation Yrotation
		JOINT Neck
		{
			OFFSET 0.000000 0.445665 0.000000 
			CHANNELS 3 Zrotation Xrotation Yrotation
			End Site
			{
				OFFSET 0.000000 0.227535 0.000000 
			}
		}
		JOINT RightShoulder
		{
			OFFSET 0.019635 0.377685 0.194865 
			CHANNELS 3 Zrotation Xrotation Yrotation
			JOINT RightElbow
			{
				OFFSET 0.000000 -0.243375 0.000000 
				CHANNELS 2 Zrotation Yrotation
				JOINT RightWrist
				{
					OFFSET 0.000000 -0.264825 0.000000 
					CHANNELS 2 Zrotation Xrotation
					End Site
					{
						OFFSET 0.006600 -0.176220 0.000990 
					}
				}
			}
		}
		JOINT LeftShoulder
		{
			OFFSET 0.019635 0.377685 -0.194865 
			CHANNELS 3 Zrotation Xrotation Yrotation
			JOINT LeftElbow
			{
				OFFSET 0.000000 -0.243375 0.000000 
				CHANNELS 2 Zrotation Yrotation
				JOINT LeftWrist
				{
					OFFSET 0.000000 -0.264825 0.000000 
					CHANNELS 2 Zrotation Xrotation
					End Site
					{
						OFFSET 0.006600 -0.176220 -0.000990 
					}
				}
			}
		}
	}
	JOINT RightHip
	{
		OFFSET 0.052140 -0.069960 0.075570 
		CHANNELS 3 Zrotation Xrotation Yrotation
		JOINT RightKnee
		{
			OFFSET 0.000000 -0.402270 0.000000 
			CHANNELS 1 Zrotation
			JOINT RightAnkle
			{
				OFFSET 0.000000 -0.404085 0.000000 
				CHANNELS 3 Zrotation Xrotation Yrotation
				End Site
				{
					OFFSET 0.204105 -0.089430 0.008415 
				}
			}
		}
	}
	JOINT LeftHip
	{
		OFFSET 0.052140 -0.069960 -0.075570 
		CHANNELS 3 Zrotation Xrotation Yrotation
		JOINT LeftKnee
		{
			OFFSET 0.000000 -0.402270 0.000000 
			CHANNELS 1 Zrotation
			JOINT LeftAnkle
			{
				OFFSET 0.000000 -0.404085 0.000000 
				CHANNELS 3 Zrotation Xrotation Yrotation
				End Site
				{
					OFFSET 0.204105 -0.089430 -0.008415 
				}
			}
		}
	}
}
MOTION
Frames: 31
Frame Time: 0.02
0.84124 0.92449 -0.54819 248.72254 0 -7.98791 8.73609 6.3007 4.00489 -29.86362 4.36555 10.26297 32.08516 -17.24585 50.58286 92.68631 12.86562 37.2008 -16.20262 20.89866 11.51873 26.07174 16.66824 -79.10868 -8.03919 1.04258 0.45001 12.49298 -11.60971 -20.04405 10.59782 -7.8354 -8.06339 23.4597 5.68746 -18.69098 -77.0611 1.93185 2.43721 0.47387
0.83526 0.92642 -0.5434 249.21765 0 -7.4434 8.49605 6.50186 5.43049 -30.008 3.12183 9.85698 32.04582 -16.2075 50.30907 92.51132 12.9507 37.41833 -16.14359 19.16973 15.15631 33.27876 16.3708 -75.94268 -9.1927 0.68347 0.16255 12.29534 -11.03422 -20.27005 10.42497 -7.98557 -8.93794 24.70772 4.4693 -16.65603 -76.0383 2.32597 2.4995 0.75162
0.83016 0.92917 -0.53809 249.3435 0 -6.77397 8.27805 6.62491 6.94466 -30.19252 1.90063 9.43069 32.04554 -15.36093 50.04042 92.45474 13.11336 37.53595 -16.06606 17.08117 19.12623 41.0637 16.38114 -72.44028 -10.95812 0.50305 -0.1178 11.99164 -9.78866 -20.40913 10.05078 -8.12382 -10.09713 25.56378 3.19104 -14.40163 -73.7918 2.71622 2.41937 0.53745
0.82469 0.9315 -0.53301 249.63481 0 -6.16501 8.04863 6.78121 8.41466 -30.35683 0.66294 9.01598 32.02056 -14.40804 49.7384 92.33143 13.23471 37.71251 -15.99784 15.15295 22.97624 48.49407 16.29841 -69.15873 -12.49876 0.24856 -0.40138 11.73483 -8.87448 -20.58911 9.77886 -8.26163 -11.09528 26.57445 1.94816 -12.27024 -72.04558 3.10635 2.42576 0.60735
0.81917 0.93402 -0.52798 249.91202 0 -5.52673 7.82392 6.94401 9.91935 -30.53144 -0.56415 8.59348 32.02421 -13.52434 49.56385 92.25914 13.38096 37.83872 -15.9253 13.21924 26.72341 56.3409 16.04331 -65.57975 -13.83171 -0.04231 -0.67131 11.47267 -7.82595 -20.77886 9.46396 -8.42353 -12.22436 27.67803 0.64729 -10.01673 -70.51174 3.52352 2.34534 0.45123
0.81393 0.93633 -0.52271 250.13982 0 -4.9254 7.59527 7.07514 11.36419 -30.69312 -1.7991 8.18211 31.97843 -12.54851 49.12946 92.1109 13.49401 38.04214 -15.85771 11.2217 30.74841 63.43504 16.21447 -62.54751 -15.72405 -0.21321 -0.97289 11.20093 -6.90629 -20.92257 9.19063 -8.53368 -13.1498 28.49478 -0.53692 -7.97423 -68.25205 3.87624 2.40726 0.63108
0.80921 0.93796 -0.51701 250.32505 0 -4.45307 7.34862 7.14633 12.64147 -30.81191 -3.09517 7.79996 31.77791 -11.24879 47.93911 91.7143 13.49709 38.49871 -15.80613 9.10678 35.51043 68.44423 17.44111 -61.06969 -19.15708 -0.08836 -1.36801 10.92487 -6.50429 -20.9483 9.07137 -8.49138 -13.43875 28.64754 -1.39611 -6.57374 -64.3123 4.05003 2.93047 1.94274
0.80473 0.93934 -0.51108 250.47596 0 -4.02463 7.09805 7.18696 13.84883 -30.9153 -4.39144 7.43071 31.52757 -9.85621 46.49467 91.23991 13.46436 39.03224 -15.76054 6.95326 40.52589 72.64331 19.09088 -60.16183 -23.10341 0.15054 -1.7966 10.64481 -6.25815 -20.93062 9.00228 -8.39957 -13.51434 28.52027 -2.13056 -5.39606 -59.68543 4.15659 3.59566 3.59186
0.80015 0.94079 -0.50522 250.6439 0 -3.58062 6.85012 7.23705 15.07408 -31.02406 -5.66399 7.05918 31.30615 -8.52114 45.19014 90.80711 13.44732 39.52029 -15.71375 4.83152 45.39063 77.12949 20.57259 -59.01856 -26.71968 0.33279 -2.20871 10.3709 -5.94538 -20.93829 8.91625 -8.33864 -13.6907 28.5018 -2.91086 -4.11548 -55.35781 4.29258 4.1732 5.02703
0.79556 0.94247 -0.4995 250.793 0 -3.11429 6.59794 7.30449 16.36427 -31.14218 -7.03714 6.67111 31.06098 -7.12423 43.78002 90.34976 13.43423 40.05151 -15.66015 2.61374 50.42472 82.0003 21.96186 -57.76332 -30.76932 0.54138 -2.62483 10.0758 -5.59232 -20.91928 8.79848 -8.2423 -13.86008 28.5484 -3.73864 -2.8317 -51.0333 4.43398 4.84198 6.69662
0.79104 0.94358 -0.4934 250.9774 0 -2.70558 6.3551 7.32774 17.49772 -31.2353 -8.19933 6.32176 30.85119 -5.83628 42.5327 89.92644 13.40492 40.50959 -15.62205 0.62056 55.15273 85.84245 23.64179 -56.88157 -34.02605 0.72006 -3.04176 9.8241 -5.36747 -20.9469 8.7614 -8.20764 -13.99061 28.39688 -4.43804 -1.61303 -46.56608 4.54754 5.35814 7.97017
0.78667 0.94317 -0.48648 251.27565 0 -2.4547 6.12457 7.25286 18.24592 -31.27406 -8.79324 6.06769 30.76595 -4.83125 41.76928 89.5901 13.32599 40.77196 -15.6283 -0.98929 59.04559 87.27183 26.00287 -56.89058 -34.9994 0.78611 -3.44385 9.70398 -5.47567 -21.11197 8.93465 -8.35928 -14.05562 27.77945 -4.80323 -0.49958 -41.78888 4.60357 5.4018 8.01769
0.78238 0.94218 -0.47913 251.61044 0 -2.2592 5.90635 7.13217 18.83292 -31.28585 -9.1725 5.85348 30.71509 -3.9455 41.18387 89.29446 13.23402 40.9545 -15.64943 -2.32452 62.60437 87.64729 28.64301 -57.2581 -35.14799 0.81764 -3.84716 9.62582 -5.70761 -21.32686 9.18798 -8.57381 -14.08889 26.97198 -5.045 0.55114 -36.91579 4.63233 5.29007 7.66546
0.77806 0.94143 -0.47185 251.926 0 -2.03277 5.69158 7.02172 19.47289 -31.30273 -9.64038 5.62715 30.63869 -3.03121 40.53485 88.99735 13.15668 41.15681 -15.66191 -3.62129 66.26978 88.35281 31.16624 -57.46349 -35.65032 0.8655 -4.25607 9.52253 -5.87528 -21.51976 9.40635 -8.75738 -14.14277 26.24521 -5.34969 1.61619 -32.14536 4.67293 5.26173 7.53294
0.7737 0.94076 -0.46509 252.25374 0 -1.83203 5.43765 6.95367 20.19489 -31.34972 -10.14484 5.37741 30.60248 -2.00647 39.80296 88.62785 13.04179 41.42883 -15.68268 -5.60643 70.14369 89.66241 33.66495 -57.68367 -36.26012 0.91476 -4.64092 9.44638 -6.08246 -21.7057 9.6221 -8.95022 -14.16541 25.53224 -5.6215 2.73329 -27.09223 4.71762 5.18705 7.25641
0.76946 0.9398 -0.45713 252.5621 0 -1.59046 5.26931 6.78829 20.7102 -31.32735 -10.52354 5.18392 30.49134 -1.23998 39.29053 88.4171 13.00198 41.53899 -15.6895 -6.09516 73.48984 89.46983 36.27248 -57.95269 -36.44321 0.95136 -5.07479 9.32151 -6.23407 -21.92187 9.85943 -9.13813 -14.24564 24.74924 -5.93377 3.73016 -22.62491 4.74304 5.16675 7.17414
0.76545 0.93817 -0.4462 252.83554 0 -1.22151 5.32546 6.35282 20.68031 -31.12392 -10.59464 5.15204 30.16581 -1.17027 39.33175 88.65819 13.1768 41.19242 -15.65562 -2.50102 75.54757 85.43619 39.13497 -58.25105 -35.64873 0.96123 -5.64928 9.06939 -6.20959 -22.18481 10.15446 -9.30637 -14.51419 23.8196 -6.39106 4.4128 -19.71365 4.76864 5.36295 7.77694
0.76156 0.9363 -0.43404 253.08308 0 -0.80934 5.469 5.82333 20.45056 -30.85105 -10.54848 5.17279 29.76426 -1.35503 39.59083 89.05371 13.42693 40.69038 -15.60698 2.57854 77.06623 79.93072 42.0906 -58.58695 -34.45148 0.95911 -6.27022 8.76248 -6.12352 -22.48383 10.4637 -9.4652 -14.83746 22.82739 -6.89332 4.97964 -17.41507 4.76903 5.61304 8.57567
0.75766 0.93456 -0.42231 253.32487 0 -0.41771 5.57839 5.34551 20.32218 -30.60737 -10.56509 5.1583 29.39653 -1.41454 39.757 89.36339 13.64012 40.27885 -15.56402 6.97659 78.77565 75.05981 44.98689 -58.91418 -33.43589 0.9619 -6.86817 8.47047 -6.05901 -22.77934 10.75615 -9.62345 -15.12435 21.86519 -7.37359 5.59597 -14.89488 4.7486 5.81941 9.25255
0.75357 0.93267 -0.41112 253.6427 0 -0.02509 5.66477 4.82901 20.14501 -30.37235 -10.53629 5.19116 29.03099 -1.51617 39.90268 89.74016 13.86464 39.78243 -15.52558 11.44407 80.71031 70.26066 47.96635 -59.21778 -32.39509 0.96542 -7.48086 8.2264 -6.02303 -23.01154 11.10004 -9.80756 -15.46419 20.88974 -7.85616 6.21338 -12.12945 4.85679 6.10245 10.06334
0.74992 0.93107 -0.39851 253.79449 0 0.3775 5.81959 4.37049 20.02237 -30.10364 -10.57439 5.13969 28.64494 -1.59216 40.14148 90.01384 14.08322 39.42483 -15.47443 16.07516 82.04233 65.02131 50.78932 -59.57609 -31.32507 0.96554 -8.06538 7.86358 -5.91516 -23.39686 11.33286 -9.93073 -15.70014 19.92929 -8.3461 6.8142 -10.02356 4.69983 6.23958 10.63545
0.74735 0.93025 -0.38234 253.5032 0 0.78854 6.14216 4.10237 20.11527 -29.75513 -10.84942 4.82285 28.19969 -1.50786 40.575 89.96184 14.27018 39.50702 -15.38847 21.15182 81.92835 58.5413 53.16762 -60.06105 -30.24805 0.9543 -8.63099 7.2323 -5.58895 -24.08366 11.30648 -9.9227 -15.69744 19.02981 -8.84681 7.29239 -9.57706 3.74514 5.97038 10.60043
0.74523 0.92974 -0.36479 253.04413 0 1.20995 6.53021 3.89442 20.26799 -29.37617 -11.19249 4.42311 27.74077 -1.39386 41.09534 89.8019 14.4478 39.73115 -15.29088 26.27879 81.21348 51.74239 55.38047 -60.5996 -29.16416 0.9409 -9.15193 6.47501 -5.1972 -24.94507 11.15662 -9.8473 -15.57774 18.14835 -9.3534 7.77758 -9.77718 2.53811 5.55187 10.30217
0.74295 0.92914 -0.34783 252.65534 0 1.63253 6.88848 3.65477 20.38333 -29.01345 -11.49007 4.07357 27.30111 -1.31024 41.58132 89.6924 14.62798 39.87871 -15.20058 31.14079 80.71705 45.35263 57.66264 -61.12319 -28.10395 0.93211 -9.6493 5.74449 -4.85918 -25.79887 11.03108 -9.77899 -15.47038 17.25616 -9.85747 8.32921 -9.68805 1.49367 5.1955 10.06043
0.74047 0.92831 -0.33097 252.28959 0 2.03191 7.25104 3.43147 20.53372 -28.63718 -11.84495 3.67169 26.80141 -1.16272 42.05439 89.57952 14.8189 40.07207 -15.10086 37.05648 80.42645 37.81177 59.97867 -61.61341 -26.94276 0.90841 -10.34005 5.13913 -4.42286 -26.34707 11.0456 -9.80778 -15.53409 16.37011 -10.36386 8.58393 -9.59567 0.24565 4.86318 10.09015
0.73852 0.92804 -0.3136 251.83796 0 2.4813 7.61765 3.18806 20.62911 -28.28403 -12.09815 3.36011 26.42743 -1.1399 42.57101 89.44972 14.98299 40.20536 -15.01874 40.79571 79.57883 32.59141 62.17656 -62.17937 -25.99515 0.91437 -10.6086 4.246 -4.17042 -27.57778 10.73227 -9.62089 -15.21699 15.47922 -10.8644 9.45886 -9.66205 -0.63741 4.44698 9.49141
0.73788 0.92933 -0.29497 251.17889 0 3.06632 7.99119 2.88918 20.54789 -27.99213 -12.0547 3.30342 26.37898 -1.44996 43.19409 89.26632 15.0859 40.1428 -14.98322 38.28193 77.28139 34.04433 64.14737 -62.99268 -25.64698 1.01212 -9.79301 2.57396 -4.49505 -30.60305 9.60606 -8.8346 -13.84474 14.54589 -11.36286 12.05216 -9.94813 -0.45617 3.81562 7.20725
0.73777 0.93114 -0.2759 250.44318 0 3.6999 8.3638 2.56638 20.41144 -27.72675 -11.90675 3.34265 26.46222 -1.88832 43.85506 89.07452 15.15992 40.01503 -14.96672 33.61088 74.45919 37.81578 65.993 -63.87123 -25.51504 1.13826 -8.54146 0.62201 -4.998 -34.31419 8.14682 -7.83801 -12.10085 13.61129 -11.85205 15.26452 -10.37746 0.10142 3.10864 4.304
0.73742 0.93264 -0.25714 249.74786 0 4.31245 8.72883 2.24442 20.3088 -27.45625 -11.80714 3.34779 26.50238 -2.27951 44.49322 88.90826 15.23966 39.91451 -14.94485 30.0722 71.91676 40.41067 67.85763 -64.6852 -25.28045 1.24516 -7.44181 -1.19449 -5.38385 -37.74682 6.79363 -6.95028 -10.54571 12.69468 -12.3352 18.19438 -10.78092 0.49122 2.44905 1.6895
0.73707 0.93446 -0.23786 249.01597 0 4.92584 9.13048 1.96402 20.17427 -27.15554 -11.70747 3.31129 26.47269 -2.62462 45.1599 88.64876 15.34984 39.82799 -14.90906 25.89762 69.17307 43.51351 69.87869 -65.64582 -25.06213 1.37812 -6.53238 -3.05949 -5.91693 -41.06038 5.60951 -6.00159 -8.8953 11.70807 -12.8622 21.14612 -11.05175 0.86162 1.72877 -0.9757
0.73685 0.93576 -0.2196 248.35329 0 5.54279 9.45416 1.59413 20.08864 -26.92424 -11.5807 3.38369 26.6181 -3.09427 45.77285 88.58016 15.39056 39.69615 -14.90653 22.53053 66.73891 46.1118 71.54359 -66.31919 -24.8636 1.46433 -5.12807 -4.87669 -6.18991 -44.76381 4.01817 -5.13394 -7.36584 10.86304 -13.29517 24.17815 -11.61177 1.36115 1.11951 -3.66586
